<?xml version="1.0" encoding="UTF-8"?>
<svg xmlns="http://www.w3.org/2000/svg" xmlns:xlink="http://www.w3.org/1999/xlink" width="139px" height="111px" viewBox="0 0 138 111" version="1.1">
<g id="surface1">
<path style=" stroke:none;fill-rule:nonzero;fill:rgb(0%,0%,0%);fill-opacity:1;" d="M 74.820312 11.816406 C 74.636719 12.070312 74.519531 14.152344 74.472656 19.101562 L 74.40625 26.0625 L 73.714844 27.195312 C 73.324219 27.796875 72.566406 28.628906 72.011719 29.023438 C 71.09375 29.667969 70.886719 29.714844 69 29.714844 C 67.113281 29.714844 66.90625 29.667969 65.988281 29.023438 C 64.5625 28.027344 63.710938 26.5 63.550781 24.765625 C 63.433594 23.609375 63.363281 23.402344 63.113281 23.609375 C 62.722656 23.933594 62.699219 25.320312 63.066406 26.386719 C 63.777344 28.488281 65.527344 30.039062 67.757812 30.546875 C 70.816406 31.242188 74.082031 29.277344 74.980469 26.222656 C 75.347656 24.929688 75.210938 11.355469 74.820312 11.816406 Z M 74.820312 11.816406 "/>
<path style=" stroke:none;fill-rule:nonzero;fill:rgb(0%,0%,0%);fill-opacity:1;" d="M 72.863281 13.804688 C 72.496094 14.222656 72.449219 14.847656 72.449219 19.816406 C 72.449219 25.207031 72.425781 25.390625 71.921875 26.15625 C 70.539062 28.234375 67.460938 28.234375 66.078125 26.15625 C 65.617188 25.484375 65.550781 25.066406 65.550781 23.285156 L 65.550781 21.207031 L 65.066406 21.644531 C 64.628906 22.039062 64.585938 22.269531 64.675781 23.863281 C 64.769531 25.296875 64.90625 25.832031 65.390625 26.570312 C 67.046875 29.089844 70.953125 29.066406 72.609375 26.546875 C 73.253906 25.597656 73.253906 25.578125 73.324219 20.835938 C 73.371094 18.222656 73.371094 15.46875 73.324219 14.707031 C 73.253906 13.414062 73.230469 13.367188 72.863281 13.804688 Z M 72.863281 13.804688 "/>
<path style=" stroke:none;fill-rule:nonzero;fill:rgb(0%,0%,0%);fill-opacity:1;" d="M 70.886719 15.769531 C 70.703125 15.957031 70.609375 17.296875 70.609375 20.257812 C 70.609375 24.003906 70.5625 24.511719 70.195312 25 C 69.898438 25.34375 69.507812 25.507812 69 25.507812 C 67.664062 25.507812 67.390625 24.882812 67.390625 21.921875 C 67.390625 19.679688 67.34375 19.402344 67.046875 19.65625 C 66.769531 19.886719 66.699219 20.511719 66.699219 22.429688 C 66.699219 24.71875 66.746094 24.953125 67.253906 25.507812 C 67.894531 26.199219 68.746094 26.476562 69.597656 26.269531 C 69.921875 26.175781 70.449219 25.832031 70.746094 25.507812 C 71.300781 24.90625 71.300781 24.859375 71.300781 20.210938 C 71.300781 17.621094 71.277344 15.492188 71.230469 15.492188 C 71.183594 15.492188 71.046875 15.609375 70.886719 15.769531 Z M 70.886719 15.769531 "/>
<path style=" stroke:none;fill-rule:nonzero;fill:rgb(0%,0%,0%);fill-opacity:1;" d="M 54.464844 40.351562 C 54.003906 40.539062 51.40625 41.949219 48.714844 43.5 C 46.023438 45.070312 43.402344 46.574219 42.894531 46.851562 C 42.160156 47.289062 42.066406 47.40625 42.410156 47.546875 C 42.941406 47.753906 43.101562 47.660156 49.128906 44.167969 C 55.015625 40.722656 55.820312 40.445312 57.800781 41.023438 C 61.179688 42.019531 62.789062 45.53125 61.316406 48.679688 C 60.742188 49.902344 60.167969 50.527344 58.902344 51.292969 C 58.191406 51.730469 58.167969 51.753906 58.628906 51.914062 C 59.246094 52.101562 60.511719 51.335938 61.296875 50.320312 C 63.15625 47.867188 63.066406 44.492188 61.066406 42.109375 C 59.59375 40.375 56.578125 39.566406 54.464844 40.351562 Z M 54.464844 40.351562 "/>
<path style=" stroke:none;fill-rule:nonzero;fill:rgb(0%,0%,0%);fill-opacity:1;" d="M 79.441406 40.375 C 77.074219 41.253906 75.347656 43.796875 75.371094 46.367188 C 75.394531 48.125 76.015625 49.625 77.210938 50.757812 C 77.945312 51.453125 89.46875 58.367188 89.632812 58.183594 C 89.652344 58.160156 89.632812 57.929688 89.5625 57.695312 C 89.46875 57.394531 87.5625 56.148438 83.996094 54.113281 C 81.027344 52.402344 78.269531 50.734375 77.902344 50.414062 C 76.910156 49.601562 76.128906 47.777344 76.128906 46.296875 C 76.128906 42.179688 80.476562 39.542969 84.132812 41.441406 C 84.871094 41.832031 85.328125 41.949219 85.328125 41.785156 C 85.308594 40.445312 81.605469 39.566406 79.441406 40.375 Z M 79.441406 40.375 "/>
<path style=" stroke:none;fill-rule:nonzero;fill:rgb(0%,0%,0%);fill-opacity:1;" d="M 54.257812 42.597656 C 52.140625 43.683594 44.851562 47.984375 44.851562 48.144531 C 44.851562 48.722656 46.367188 48.03125 50.460938 45.625 C 54.511719 43.265625 55.222656 42.941406 56.144531 42.921875 C 58.878906 42.921875 60.582031 45.648438 59.363281 48.054688 C 58.972656 48.792969 58.511719 49.234375 57.132812 50.019531 C 55.660156 50.898438 55.476562 51.058594 55.914062 51.175781 C 56.925781 51.453125 59.59375 49.578125 60.167969 48.167969 C 60.835938 46.597656 60.375 44.285156 59.179688 43.199219 C 57.914062 42.042969 55.84375 41.785156 54.257812 42.597656 Z M 54.257812 42.597656 "/>
<path style=" stroke:none;fill-rule:nonzero;fill:rgb(0%,0%,0%);fill-opacity:1;" d="M 80.292969 42.34375 C 77.324219 43.542969 76.519531 47.40625 78.796875 49.511719 C 79.601562 50.273438 88.757812 55.59375 88.941406 55.429688 C 89.285156 55.0625 88.203125 54.273438 83.925781 51.800781 C 78.566406 48.703125 78.109375 48.238281 78.269531 46.179688 C 78.382812 44.769531 78.960938 43.960938 80.363281 43.265625 C 81.375 42.757812 81.582031 42.734375 82.476562 42.964844 C 83.03125 43.128906 83.996094 43.566406 84.640625 43.960938 C 85.285156 44.355469 85.882812 44.609375 85.972656 44.539062 C 86.273438 44.238281 85.628906 43.613281 84.203125 42.851562 C 82.707031 42.0625 81.421875 41.878906 80.292969 42.34375 Z M 80.292969 42.34375 "/>
<path style=" stroke:none;fill-rule:nonzero;fill:rgb(0%,0%,0%);fill-opacity:1;" d="M 51.472656 46.433594 C 49.382812 47.660156 47.5625 48.746094 47.472656 48.839844 C 47.378906 48.957031 47.585938 49.023438 47.953125 49.023438 C 48.347656 49.023438 50.003906 48.191406 52.234375 46.921875 C 55.453125 45.046875 55.9375 44.839844 56.511719 45.023438 C 56.855469 45.140625 57.292969 45.53125 57.476562 45.902344 C 57.960938 46.898438 57.476562 47.523438 55.152344 48.910156 C 52.785156 50.296875 52.761719 50.320312 53.335938 50.480469 C 54.003906 50.644531 57.660156 48.46875 58.074219 47.636719 C 58.949219 45.949219 57.84375 44.144531 55.960938 44.167969 C 55.566406 44.191406 53.773438 45.09375 51.472656 46.433594 Z M 51.472656 46.433594 "/>
<path style=" stroke:none;fill-rule:nonzero;fill:rgb(0%,0%,0%);fill-opacity:1;" d="M 80.683594 44.5625 C 80.015625 44.976562 79.578125 45.765625 79.578125 46.550781 C 79.578125 47.660156 80.363281 48.355469 84.296875 50.644531 C 86.457031 51.890625 88.226562 52.886719 88.25 52.863281 C 88.273438 52.839844 88.25 52.609375 88.183594 52.355469 C 88.113281 52.054688 86.824219 51.175781 84.480469 49.835938 C 82.523438 48.703125 80.753906 47.546875 80.570312 47.246094 C 80.109375 46.550781 80.453125 45.53125 81.304688 45.117188 C 82.019531 44.769531 82.292969 44.886719 85.285156 46.597656 C 86.570312 47.335938 86.710938 47.382812 86.710938 46.988281 C 86.710938 46.667969 86.136719 46.203125 84.664062 45.347656 C 82.5 44.097656 81.695312 43.9375 80.683594 44.5625 Z M 80.683594 44.5625 "/>
<path style=" stroke:none;fill-rule:nonzero;fill:rgb(0%,0%,0%);fill-opacity:1;" d="M 40.617188 73.238281 C 40.550781 73.46875 39.972656 75.988281 39.328125 78.855469 C 38.6875 81.722656 38.109375 84.246094 38.042969 84.453125 C 37.949219 84.777344 38.066406 84.867188 38.570312 84.867188 C 39.191406 84.867188 39.261719 84.800781 39.515625 83.480469 L 39.8125 82.09375 L 43.402344 82.09375 L 43.699219 83.480469 C 43.953125 84.707031 44.066406 84.867188 44.527344 84.867188 C 44.851562 84.867188 45.078125 84.730469 45.078125 84.546875 C 45.078125 84.359375 44.503906 81.699219 43.816406 78.625 C 43.125 75.550781 42.550781 72.984375 42.550781 72.9375 C 42.550781 72.890625 42.136719 72.84375 41.652344 72.84375 C 40.984375 72.84375 40.710938 72.960938 40.617188 73.238281 Z M 42.410156 77.816406 C 42.734375 79.34375 43.011719 80.660156 43.011719 80.753906 C 43.011719 80.867188 42.367188 80.9375 41.5625 80.9375 L 40.089844 80.9375 L 40.800781 77.699219 C 41.191406 75.941406 41.585938 74.601562 41.652344 74.761719 C 41.746094 74.925781 42.066406 76.289062 42.410156 77.816406 Z M 42.410156 77.816406 "/>
<path style=" stroke:none;fill-rule:nonzero;fill:rgb(0%,0%,0%);fill-opacity:1;" d="M 47.839844 78.832031 L 47.839844 84.867188 L 48.988281 84.867188 L 49.035156 80.289062 L 49.105469 75.734375 L 51.058594 80.242188 C 52.878906 84.40625 53.085938 84.753906 53.660156 84.824219 L 54.28125 84.890625 L 54.28125 72.84375 L 53.128906 72.84375 L 53.128906 77.398438 C 53.128906 79.898438 53.0625 81.863281 52.96875 81.769531 C 52.878906 81.675781 51.957031 79.664062 50.921875 77.285156 C 49.21875 73.351562 49.011719 72.960938 48.460938 72.890625 L 47.839844 72.820312 Z M 47.839844 78.832031 "/>
<path style=" stroke:none;fill-rule:nonzero;fill:rgb(0%,0%,0%);fill-opacity:1;" d="M 56.808594 73.121094 C 56.808594 73.261719 57.429688 74.972656 58.191406 76.9375 C 59.523438 80.382812 59.570312 80.519531 59.570312 82.671875 L 59.570312 84.867188 L 60.949219 84.867188 L 60.949219 82.601562 C 60.949219 80.40625 60.972656 80.289062 62.328125 76.820312 C 63.089844 74.855469 63.710938 73.167969 63.710938 73.050781 C 63.710938 72.9375 63.457031 72.84375 63.15625 72.84375 C 62.582031 72.84375 62.308594 73.421875 60.8125 77.628906 C 60.582031 78.300781 60.328125 78.855469 60.261719 78.855469 C 60.191406 78.855469 59.617188 77.492188 58.996094 75.851562 C 58.007812 73.167969 57.820312 72.84375 57.339844 72.84375 C 57.039062 72.84375 56.808594 72.960938 56.808594 73.121094 Z M 56.808594 73.121094 "/>
<path style=" stroke:none;fill-rule:nonzero;fill:rgb(0%,0%,0%);fill-opacity:1;" d="M 66.238281 78.855469 L 66.238281 84.867188 L 68.035156 84.867188 C 70.035156 84.867188 71.230469 84.429688 71.691406 83.480469 C 71.851562 83.15625 71.988281 82.1875 71.988281 81.308594 C 71.988281 79.875 71.921875 79.664062 71.347656 79.132812 L 70.703125 78.554688 L 71.230469 78.023438 C 71.667969 77.585938 71.761719 77.238281 71.761719 75.988281 C 71.761719 73.582031 70.792969 72.890625 67.460938 72.84375 L 66.238281 72.84375 Z M 70.082031 74.507812 C 70.769531 75.179688 70.816406 76.683594 70.128906 77.5625 C 69.734375 78.070312 69.484375 78.164062 68.515625 78.164062 L 67.390625 78.164062 L 67.390625 74 L 68.472656 74 C 69.253906 74 69.691406 74.140625 70.082031 74.507812 Z M 70.355469 79.6875 C 71.117188 80.660156 70.953125 82.949219 70.058594 83.527344 C 69.921875 83.621094 69.253906 83.710938 68.609375 83.710938 L 67.390625 83.710938 L 67.390625 79.085938 L 68.632812 79.085938 C 69.714844 79.085938 69.941406 79.179688 70.355469 79.6875 Z M 70.355469 79.6875 "/>
<path style=" stroke:none;fill-rule:nonzero;fill:rgb(0%,0%,0%);fill-opacity:1;" d="M 76.84375 73.699219 C 76.703125 74.183594 76.128906 76.707031 75.554688 79.320312 C 74.980469 81.933594 74.449219 84.246094 74.382812 84.476562 C 74.265625 84.824219 74.359375 84.890625 74.886719 84.824219 C 75.464844 84.753906 75.578125 84.613281 75.855469 83.410156 L 76.175781 82.09375 L 79.742188 82.09375 L 80.015625 83.480469 C 80.269531 84.730469 80.363281 84.867188 80.867188 84.867188 C 81.167969 84.867188 81.421875 84.730469 81.421875 84.566406 C 81.421875 84.40625 80.84375 81.722656 80.15625 78.648438 C 79.464844 75.550781 78.890625 72.984375 78.890625 72.9375 C 78.890625 72.890625 78.476562 72.84375 77.96875 72.84375 C 77.117188 72.84375 77.050781 72.890625 76.84375 73.699219 Z M 78.796875 78 C 79.121094 79.503906 79.351562 80.777344 79.28125 80.84375 C 79.234375 80.914062 78.566406 80.9375 77.808594 80.890625 L 76.453125 80.820312 L 77.140625 77.628906 C 77.601562 75.617188 77.925781 74.601562 78.015625 74.855469 C 78.109375 75.085938 78.453125 76.496094 78.796875 78 Z M 78.796875 78 "/>
<path style=" stroke:none;fill-rule:nonzero;fill:rgb(0%,0%,0%);fill-opacity:1;" d="M 84.179688 78.832031 L 84.179688 84.867188 L 85.328125 84.867188 L 85.375 80.3125 L 85.445312 75.734375 L 87.398438 80.242188 C 89.21875 84.40625 89.402344 84.753906 90 84.824219 L 90.621094 84.890625 L 90.621094 72.84375 L 89.46875 72.84375 L 89.46875 77.398438 C 89.46875 79.898438 89.402344 81.863281 89.308594 81.769531 C 89.195312 81.675781 88.296875 79.664062 87.261719 77.285156 C 85.558594 73.351562 85.351562 72.960938 84.777344 72.890625 L 84.179688 72.820312 Z M 84.179688 78.832031 "/>
<path style=" stroke:none;fill-rule:nonzero;fill:rgb(0%,0%,0%);fill-opacity:1;" d="M 94.300781 78.855469 L 94.300781 84.867188 L 94.875 84.867188 C 95.449219 84.867188 95.449219 84.867188 95.449219 82.578125 C 95.449219 80.753906 95.519531 80.199219 95.863281 79.804688 C 96.253906 79.296875 96.277344 79.320312 97.636719 82.070312 C 98.898438 84.636719 99.0625 84.867188 99.636719 84.867188 C 99.980469 84.867188 100.28125 84.800781 100.28125 84.707031 C 100.28125 84.636719 99.566406 83.179688 98.671875 81.46875 C 97.796875 79.757812 97.058594 78.253906 97.058594 78.117188 C 97.058594 77.976562 97.726562 76.796875 98.554688 75.480469 C 99.382812 74.160156 100.050781 73.027344 100.050781 72.960938 C 100.050781 72.890625 99.796875 72.84375 99.476562 72.84375 C 98.96875 72.84375 98.625 73.238281 97.335938 75.273438 C 96.484375 76.589844 95.726562 77.699219 95.632812 77.699219 C 95.519531 77.699219 95.449219 76.613281 95.449219 75.273438 L 95.449219 72.84375 L 94.300781 72.84375 Z M 94.300781 78.855469 "/>
<path style=" stroke:none;fill-rule:nonzero;fill:rgb(0%,0%,0%);fill-opacity:1;" d="M 51.957031 88.128906 C 51.613281 88.269531 51.222656 88.660156 51.058594 89.03125 C 50.621094 90.070312 51.105469 91.066406 52.785156 92.707031 C 53.910156 93.796875 54.28125 94.28125 54.28125 94.765625 C 54.28125 95.597656 53.890625 95.96875 53.015625 95.96875 C 52.09375 95.96875 51.75 95.597656 51.75 94.652344 C 51.75 94.027344 51.65625 93.886719 51.265625 93.886719 C 50.808594 93.886719 50.785156 93.980469 50.898438 94.859375 C 50.992188 95.484375 51.222656 95.992188 51.519531 96.246094 C 52.371094 96.941406 54.464844 96.707031 55.015625 95.875 C 55.109375 95.738281 55.199219 95.230469 55.199219 94.71875 C 55.199219 93.933594 55.015625 93.65625 53.453125 92.039062 C 51.542969 90.046875 51.359375 89.449219 52.464844 88.824219 C 53.015625 88.523438 53.128906 88.523438 53.683594 88.871094 C 54.140625 89.171875 54.28125 89.46875 54.28125 90.070312 C 54.28125 90.648438 54.371094 90.882812 54.625 90.882812 C 55.152344 90.882812 55.292969 90.257812 54.992188 89.285156 C 54.625 88.015625 53.453125 87.574219 51.957031 88.128906 Z M 51.957031 88.128906 "/>
<path style=" stroke:none;fill-rule:nonzero;fill:rgb(0%,0%,0%);fill-opacity:1;" d="M 69.757812 88.105469 C 69.113281 88.382812 68.769531 89.03125 68.769531 90.046875 C 68.769531 90.71875 68.863281 90.882812 69.230469 90.882812 C 69.621094 90.882812 69.691406 90.71875 69.691406 89.957031 C 69.691406 89.148438 69.78125 88.984375 70.335938 88.777344 C 70.792969 88.59375 71.09375 88.59375 71.53125 88.847656 C 72.703125 89.492188 72.472656 90.347656 70.378906 93.332031 C 69.507812 94.582031 68.769531 95.808594 68.769531 96.015625 C 68.769531 96.386719 69.023438 96.429688 70.839844 96.429688 C 72.519531 96.429688 72.910156 96.363281 72.910156 96.085938 C 72.910156 95.808594 72.589844 95.738281 71.414062 95.738281 C 70.585938 95.738281 69.921875 95.691406 69.921875 95.644531 C 69.921875 95.574219 70.585938 94.535156 71.414062 93.308594 C 72.75 91.34375 72.910156 90.972656 72.910156 89.980469 C 72.910156 89.171875 72.796875 88.753906 72.472656 88.476562 C 71.945312 87.992188 70.472656 87.78125 69.757812 88.105469 Z M 69.757812 88.105469 "/>
<path style=" stroke:none;fill-rule:nonzero;fill:rgb(0%,0%,0%);fill-opacity:1;" d="M 76.199219 88.105469 C 75.347656 88.453125 75.210938 89.078125 75.210938 92.382812 C 75.210938 95.414062 75.234375 95.550781 75.785156 96.085938 C 76.566406 96.894531 78.222656 96.894531 79.003906 96.085938 C 79.558594 95.550781 79.578125 95.414062 79.578125 92.40625 C 79.578125 90.695312 79.511719 89.125 79.441406 88.914062 C 79.121094 88.082031 77.371094 87.644531 76.199219 88.105469 Z M 78.0625 88.800781 L 78.660156 89.03125 L 78.660156 92.222656 C 78.660156 95.714844 78.566406 95.96875 77.394531 95.96875 C 76.222656 95.96875 76.128906 95.714844 76.128906 92.222656 C 76.128906 89.125 76.152344 89.007812 76.660156 88.800781 C 77.324219 88.523438 77.371094 88.523438 78.0625 88.800781 Z M 78.0625 88.800781 "/>
<path style=" stroke:none;fill-rule:nonzero;fill:rgb(0%,0%,0%);fill-opacity:1;" d="M 83.03125 88.128906 C 82.269531 88.429688 82.109375 88.730469 82.109375 89.886719 C 82.109375 90.625 82.203125 90.882812 82.453125 90.882812 C 82.683594 90.882812 82.800781 90.625 82.800781 90.070312 C 82.800781 89.03125 83.605469 88.40625 84.570312 88.730469 C 85.121094 88.914062 85.214844 89.101562 85.285156 89.863281 C 85.351562 90.695312 85.167969 91.066406 83.605469 93.285156 C 82.660156 94.652344 81.878906 95.921875 81.878906 96.109375 C 81.878906 96.363281 82.339844 96.429688 84.066406 96.429688 C 85.835938 96.429688 86.25 96.363281 86.25 96.085938 C 86.25 95.828125 85.859375 95.738281 84.664062 95.691406 L 83.074219 95.621094 L 84.664062 93.238281 C 86.226562 90.90625 86.433594 90.304688 86.113281 89.078125 C 85.835938 88.105469 84.296875 87.621094 83.03125 88.128906 Z M 83.03125 88.128906 "/>
<path style=" stroke:none;fill-rule:nonzero;fill:rgb(0%,0%,0%);fill-opacity:1;" d="M 45.308594 92.269531 L 45.308594 96.429688 L 47.265625 96.429688 C 48.851562 96.429688 49.21875 96.363281 49.21875 96.085938 C 49.21875 95.808594 48.898438 95.738281 47.726562 95.738281 L 46.230469 95.738281 L 46.230469 92.730469 L 47.378906 92.730469 C 48.367188 92.730469 48.53125 92.660156 48.53125 92.269531 C 48.53125 91.875 48.367188 91.804688 47.378906 91.804688 L 46.230469 91.804688 L 46.230469 88.800781 L 47.609375 88.800781 C 48.691406 88.800781 48.988281 88.730469 48.988281 88.453125 C 48.988281 88.175781 48.621094 88.105469 47.148438 88.105469 L 45.308594 88.105469 Z M 45.308594 92.269531 "/>
<path style=" stroke:none;fill-rule:nonzero;fill:rgb(0%,0%,0%);fill-opacity:1;" d="M 57.5 91.992188 C 57.5 95.484375 57.546875 95.945312 57.914062 96.269531 C 58.441406 96.753906 59.660156 96.777344 60.121094 96.292969 C 60.605469 95.808594 60.628906 93.65625 60.167969 93.65625 C 59.9375 93.65625 59.800781 93.957031 59.753906 94.605469 C 59.660156 95.808594 59.039062 96.339844 58.511719 95.621094 C 58.257812 95.273438 58.191406 94.511719 58.234375 92.039062 L 58.304688 88.914062 L 59.292969 88.847656 C 59.9375 88.800781 60.261719 88.660156 60.261719 88.429688 C 60.261719 88.175781 59.9375 88.105469 58.878906 88.105469 L 57.5 88.105469 Z M 57.5 91.992188 "/>
<path style=" stroke:none;fill-rule:nonzero;fill:rgb(0%,0%,0%);fill-opacity:1;" d="M 89.402344 88.660156 C 88.296875 89.332031 88.25 89.402344 88.433594 89.726562 C 88.550781 89.886719 88.847656 89.839844 89.378906 89.492188 C 89.839844 89.238281 90.230469 89.03125 90.296875 89.03125 C 90.34375 89.03125 90.390625 90.535156 90.390625 92.382812 L 90.390625 95.738281 L 89.699219 95.738281 C 89.238281 95.738281 89.011719 95.851562 89.011719 96.085938 C 89.011719 96.363281 89.378906 96.429688 90.851562 96.429688 C 92.320312 96.429688 92.691406 96.363281 92.691406 96.085938 C 92.691406 95.851562 92.460938 95.738281 92 95.738281 L 91.308594 95.738281 L 91.308594 91.921875 C 91.308594 88.105469 91.308594 88.105469 90.804688 88.105469 C 90.503906 88.105469 89.882812 88.359375 89.402344 88.660156 Z M 89.402344 88.660156 "/>
<path style=" stroke:none;fill-rule:nonzero;fill:rgb(0%,0%,0%);fill-opacity:1;" d="M 62.328125 95.714844 C 62.328125 96.339844 62.421875 96.429688 62.929688 96.429688 C 63.433594 96.429688 63.503906 96.339844 63.433594 95.785156 C 63.386719 95.34375 63.226562 95.136719 62.859375 95.089844 C 62.398438 95.019531 62.328125 95.113281 62.328125 95.714844 Z M 62.328125 95.714844 "/>
</g>
</svg>
